{"title":"Bringing Up Bates - s02e09 - Wedding To Do List - HDTV 1080","uid":12206773,"size":804748210,"categoryP":"video","categoryS":"hd___tv_shows","magnet":"?xt=urn:btih:0772add2ccdec102d3bb93449c8a8427c454d7b2&amp;dn=Bringing+Up+Bates+-+s02e09+-+Wedding+To+Do+List+-+HDTV+1080&amp;tr=udp%3A%2F%2Ftracker.openbittorrent.com%3A80&amp;tr=udp%3A%2F%2Fopen.demonii.com%3A1337&amp;tr=udp%3A%2F%2Ftracker.coppersurfer.tk%3A6969&amp;tr=udp%3A%2F%2Fexodus.desync.com%3A6969","seeders":4,"leechers":2,"uploader":null,"files":13,"time":1438981584,"description":"General\n Complete name : Bringing Up Bates s02e09 - The Wedding To-Do ListBringing Up Bates - so2e09 - The Wedding To-Do List.mp4\n Format : MPEG-4\n Format profile : Base Media / Version 2\n Codec ID : mp42\n File size : 604 MiB\n Duration : 22mn 39s\n Overall bit rate mode : Variable\n Overall bit rate : 3 727 Kbps\n Encoded date : UTC 2015-07-31 15:24:57\n Tagged date : UTC 2015-07-31 15:25:29\n\n Video\n ID : 1\n Format : AVC\n Format/Info : Advanced Video Codec\n Format profile : High@L4\n Format settings, CABAC : Yes\n Format settings, ReFrames : 4 frames\n Codec ID : avc1\n Codec ID/Info : Advanced Video Coding\n Duration : 22mn 39s\n Bit rate : 3 500 Kbps\n Width : 1 920 pixels\n Height : 1 080 pixels\n Display aspect ratio : 16:9\n Frame rate mode : Variable\n Frame rate : 29.970 fps\n Minimum frame rate : 9.992 fps\n Maximum frame rate : 29.970 fps\n Color space : YUV\n Chroma subsampling : 4:2:0\n Bit depth : 8 bits\n Scan type : Progressive\n Bits/(Pixel*Frame) : 0.056\n Stream size : 567 MiB (94%)\n Writing library : x264 core 146 r2538 121396c\n Encoding settings : cabac=1 / ref=3 / deblock=1:0:0 / analyse=0x3:0x133 / me=hex / subme=7 / psy=1 / psy_rd=1.00:0.00 / mixed_ref=1 / me_range=16 / chroma_me=1 / trellis=1 / 8x8dct=1 / cqm=0 / deadzone=21,11 / fast_pskip=1 / chroma_qp_offset=-2 / threads=6 / lookahead_threads=1 / sliced_threads=0 / nr=0 / decimate=1 / interlaced=0 / bluray_compat=0 / constrained_intra=0 / bframes=3 / b_pyramid=2 / b_adapt=1 / b_bias=0 / direct=1 / weightb=1 / open_gop=0 / weightp=2 / keyint=250 / keyint_min=25 / scenecut=40 / intra_refresh=0 / rc_lookahead=40 / rc=2pass / mbtree=1 / bitrate=3500 / ratetol=1.0 / qcomp=0.60 / qpmin=10 / qpmax=51 / qpstep=4 / cplxblur=20.0 / qblur=0.5 / ip_ratio=1.40 / aq=1:1.00\n Encoded date : UTC 2015-07-31 15:24:57\n Tagged date : UTC 2015-07-31 15:25:19\n\n Audio\n ID : 2\n Format : AAC\n Format/Info : Advanced Audio Codec\n Format profile : LC\n Codec ID : 40\n Duration : 22mn 39s\n Duration_FirstFrame : -43ms\n Bit rate mode : Variable\n Bit rate : 221 Kbps\n Channel(s) : 2 channels\n Channel positions : Front: L R\n Sampling rate : 48.0 KHz\n Compression mode : Lossy\n Stream size : 35.9 MiB (6%)\n Title : Stereo\n Encoded date : UTC 2015-07-31 15:24:57\n Tagged date : UTC 2015-07-31 15:25:19","torrent":{"xt":"urn:btih:0772add2ccdec102d3bb93449c8a8427c454d7b2","amp;dn":"Bringing+Up+Bates+-+s02e09+-+Wedding+To+Do+List+-+HDTV+1080","amp;tr":["udp%3A%2F%2Ftracker.openbittorrent.com%3A80","udp%3A%2F%2Fopen.demonii.com%3A1337","udp%3A%2F%2Ftracker.coppersurfer.tk%3A6969","udp%3A%2F%2Fexodus.desync.com%3A6969"],"infoHash":"0772add2ccdec102d3bb93449c8a8427c454d7b2","infoHashBuffer":{"type":"Buffer","data":[7,114,173,210,204,222,193,2,211,187,147,68,156,138,132,39,196,84,215,178]},"announce":[],"urlList":[]}}